<?xml version="1.0" encoding="UTF-8"?>
<svg id="Layer_2" data-name="Layer 2" xmlns="http://www.w3.org/2000/svg" viewBox="0 0 576 512">
  <defs>
    <style>
      .cls-1 {
        fill: #000;
        stroke-width: 0px;
      }
    </style>
  </defs>
  <g id="Layer_1-2" data-name="Layer 1">
    <path class="cls-1" d="M464,128H112c-8.8,0-16,7.2-16,16v16c0,8.84,7.16,16,16,16h352c8.8,0,16-7.2,16-16v-16c0-8.8-7.2-16-16-16ZM512,0H64C28.8,0,0,28.8,0,64v128c0,35.2,28.8,64,64,64h448c35.2,0,64-28.8,64-64V64c0-35.2-28.8-64-64-64ZM528,192c0,8.67-7.33,16-16,16H64c-8.67,0-16-7.3-16-16V64c0-8.67,7.33-16,16-16h448c8.67,0,16,7.33,16,16v128ZM208,424c0,22.06-17.94,40-40,40s-40-17.9-40-40c0-16.38,9.81-30.94,25.02-37.09,12.28-4.97,18.2-18.97,13.23-31.25-4.98-12.28-18.92-18.16-31.27-13.25-33.38,13.49-54.98,44.69-54.98,81.59,0,48.53,39.47,88,88,88s88-39.47,88-88v-136h-48v136ZM441,310.4c-12.34-4.91-26.28.97-31.27,13.25-4.97,12.28.95,26.28,13.23,31.25,15.24,6.2,25.04,20.7,25.04,37.1,0,22.06-17.94,40-40,40s-40-17.94-40-40v-104h-48v104c0,48.53,39.47,88,88,88s88-39.47,88-88c0-36.9-21.6-68.1-55-81.6Z"/>
  </g>
</svg>