<?xml version="1.0" encoding="UTF-8"?>
<svg id="Layer_2" data-name="Layer 2" xmlns="http://www.w3.org/2000/svg" viewBox="0 0 383.66 511.98">
  <defs>
    <style>
      .cls-1 {
        fill: #000;
        stroke-width: 0px;
      }
    </style>
  </defs>
  <g id="Layer_1-2" data-name="Layer 1">
    <path class="cls-1" d="M381.09,244.78c-4.69-12.48-16.62-20.75-29.97-20.75h-111.5s76.88-179.39,76.88-179.39c5.91-13.73,1.5-29.72-10.59-38.5-12.06-8.78-28.62-8.09-39.87,1.8L10.94,231.88c-10.03,8.78-13.59,22.86-8.91,35.33,4.68,12.47,16.62,20.77,29.97,20.77h111.49l-76.88,179.4c-5.91,13.73-1.5,29.72,10.59,38.5,5.61,3.2,12.2,6.1,18.79,6.1,7.53,0,15.06-2.66,21.06-7.92l255.1-223.1c10.94-9.68,14.44-23.78,8.94-36.18ZM203.09,148.78l-32.22,75.22h-53.68l85.9-75.22ZM180.89,363.18l32.22-75.22h53.75l-85.97,75.22Z"/>
  </g>
</svg>