<?xml version="1.0" encoding="UTF-8"?>
<svg id="Layer_2" data-name="Layer 2" xmlns="http://www.w3.org/2000/svg" viewBox="0 0 352 512">
  <defs>
    <style>
      .cls-1 {
        fill: #000;
        stroke-width: 0px;
      }
    </style>
  </defs>
  <g id="Layer_1-2" data-name="Layer 1">
    <path class="cls-1" d="M205.3,22.13c-4-14.63-16.7-22.13-30.2-22.13-11.5,0-23.9,7.25-28.3,22.13C100,179.9,0,222.8,0,333.9c0,98.5,78.75,178.1,176,178.1s176-79.62,176-178.1c0-111.8-99.7-153.3-146.7-311.77ZM176,464c-70.62,0-128-58.38-128-130.1,0-43.3,20.62-72.9,52-117.8,24.1-34.6,53-75.9,76-132.48,23.12,56.88,52,98.13,76.25,132.8,31.15,44.48,51.75,73.98,51.75,117.48,0,71.7-57.4,130.1-128,130.1ZM192,400c-44.1,0-80-35.9-80-80,0-8.88-7.12-16-16-16s-16,7.1-16,16c0,61.75,50.25,111.1,112,111.1,8.88,0,16-7.12,16-16s-7.1-15.1-16-15.1Z"/>
  </g>
</svg>