<?xml version="1.0" encoding="UTF-8"?>
<svg id="Layer_2" data-name="Layer 2" xmlns="http://www.w3.org/2000/svg" viewBox="0 0 399.82 448.03">
  <defs>
    <style>
      .cls-1 {
        fill: #000;
        stroke-width: 0px;
      }
    </style>
  </defs>
  <g id="Layer_1-2" data-name="Layer 1">
    <path class="cls-1" d="M389.6,347.93c-.66,0-1.35.06-2.05.2-11.24,2.14-22.37,3.17-33.32,3.17-94.81,0-174.1-77.14-174.1-175.5,0-63.19,33.79-121.3,88.73-152.6,8.47-4.81,6.34-17.66-3.28-19.44C254.38,1.67,236.05,0,224.68,0,100.3-.87,0,100.23,0,224.03s100.1,224,223.8,224c69.04,0,132.1-31.45,173.8-82.93,5.7-7.97-.5-17.17-8-17.17ZM223.8,400.03c-96.9,0-175.8-79-175.8-176,0-76.32,48.77-141.4,116.7-165.8-21.5,34.8-33.5,75.4-33.5,117.6,0,99.44,65.13,183.9,154.9,212.8-19.6,7.5-40.7,11.4-62.3,11.4Z"/>
  </g>
</svg>