<?xml version="1.0" encoding="UTF-8"?>
<svg id="Layer_2" data-name="Layer 2" xmlns="http://www.w3.org/2000/svg" viewBox="0 0 606.67 606.67">
  <defs>
    <style>
      .cls-1 {
        fill: #000;
        stroke-width: 0px;
      }
    </style>
  </defs>
  <g id="Layer_1-2" data-name="Layer 1">
    <path class="cls-1" d="M511.33,303.32c0,13.3-10.7,24-24,24h-160v160c0,13.25-10.75,24.01-24,24.01s-24-10.71-24-24.01v-160H119.33c-13.25,0-24-10.74-24-23.99s10.75-24.01,24-24.01h160V119.32c0-13.25,10.75-23.99,24-23.99s24,10.74,24,23.99v160h160c13.3,0,24,10.8,24,24Z"/>
    <path class="cls-1" d="M303.33,606.67c-81.02,0-157.2-31.55-214.49-88.84S0,384.36,0,303.33,31.55,146.14,88.84,88.84,222.31,0,303.33,0s157.2,31.55,214.49,88.84,88.84,133.47,88.84,214.49-31.55,157.2-88.84,214.49-133.47,88.84-214.49,88.84ZM303.33,48c-140.79,0-255.33,114.54-255.33,255.33s114.54,255.33,255.33,255.33,255.33-114.54,255.33-255.33S444.12,48,303.33,48Z"/>
  </g>
</svg>