<?xml version="1.0" encoding="UTF-8"?>
<svg id="Layer_2" data-name="Layer 2" xmlns="http://www.w3.org/2000/svg" viewBox="0 0 576 512">
  <defs>
    <style>
      .cls-1 {
        fill: #000;
        stroke-width: 0px;
      }
    </style>
  </defs>
  <g id="Layer_1-2" data-name="Layer 1">
    <path class="cls-1" d="M248.2,149.9c-10,8.7-11,23.9-3.1,33.9,9.6,9.9,24.8,10.9,34.7,1.3,39.78-34.97,104.5-34.97,144.3,0,9.97,8.76,25.12,7.77,33.88-2.19,4.02-3.71,6.02-9.31,6.02-15.01,0-6.68-2.75-13.33-8.15-18.07-57.25-50.3-150.45-50.3-207.65.07ZM200.3,105.5c83.69-77.05,219.8-77.05,303.5,0,9.75,8.98,24.94,8.34,33.91-1.42,4.19-4.59,6.29-10.43,6.29-16.25,0-6.48-2.59-12.95-7.75-17.69-101.6-93.52-266.9-93.52-368.5,0-10.65,8.96-10.35,24.18-1.45,33.96,9,9.8,24.2,10.4,34,1.4ZM512,303.1h-136v-56c0-13.25-10.75-23.1-23.1-23.1s-24.9,10.7-24.9,23.1v55.97H64c-35.35,0-64,28.68-64,64.03v79.1c0,37.1,28.65,65.8,64,65.8h448c35.35,0,64-28.65,64-64v-79.1c0-36.3-28.7-65.8-64-65.8ZM528,447.1c0,8.82-7.18,16-16,16H64c-8.82,0-16-7.18-16-16v-80.01c0-8.82,7.18-15.99,16-15.99h448c8.82,0,16,7.17,16,15.99v80.01ZM184,383.1c-13.25,0-24,10.75-24,24s10.75,24,24,24,24-10.75,24-24c0-12.4-10.7-24-24-24ZM104,383.1c-13.25,0-24,10.75-24,24s10.75,24,24,24,24-9.9,24-24c0-12.4-10.7-24-24-24Z"/>
  </g>
</svg>