<?xml version="1.0" encoding="UTF-8"?>
<svg id="Layer_2" data-name="Layer 2" xmlns="http://www.w3.org/2000/svg" viewBox="0 0 512.01 512">
  <defs>
    <style>
      .cls-1 {
        fill: #000;
        stroke-width: 0px;
      }
    </style>
  </defs>
  <g id="Layer_1-2" data-name="Layer 1">
    <path class="cls-1" d="M505.2,324.8l-47.73-68.78,47.75-68.81c7.36-10.62,8.8-24.12,3.84-36.06-4.97-11.94-15.52-20.44-28.22-22.72l-82.39-14.88-14.89-82.41c-2.28-12.72-10.76-23.25-22.69-28.22-11.97-4.94-25.42-3.5-36.12,3.84l-68.75,47.73L187.2,6.71c-10.7-7.31-24.1-8.75-36.1-3.81-11.92,4.97-20.4,15.5-22.7,28.19l-14.89,82.44-82.36,14.87c-12.73,2.3-23.3,10.8-28.25,22.8-4.95,11.9-3.5,25.4,3.88,36l47.73,68.78L6.75,324.79c-7.36,10.62-8.8,24.12-3.84,36.06,4.97,11.94,15.52,20.44,28.22,22.72l82.39,14.88,14.89,82.41c2.3,12.72,10.78,23.25,22.7,28.22,11.95,4.91,25.44,3.53,36.09-3.84l68.8-47.74,68.83,47.78c6.47,4.42,13.97,6.72,21.47,6.72,4.91,0,9.86-.97,14.56-2.91,11.92-4.97,20.4-15.5,22.7-28.19l14.89-82.44,82.37-14.88c12.73-2.28,23.3-10.78,28.25-22.75,5.03-11.93,3.53-25.43-3.87-36.03ZM456.8,339.2l-99.61,18-18,99.63-83.19-57.73-83.2,57.7-18-99.63-99.61-18,57.71-84.07-57.67-82.3,99.61-18,18-99.63,83.16,57.73,83.15-57.75,18.02,99.66,99.61,18-57.68,82.29,57.7,84.1ZM256,143.1c-61.85,0-111.1,50.14-111.1,111.1s50.15,111.1,111.1,111.1,111.1-50.14,111.1-111.1-49.3-111.1-111.1-111.1ZM256,319.1c-35.28,0-63.99-28.71-63.99-63.99s28.69-63.11,63.99-63.11,63.99,28.71,63.99,63.1-28.69,64-63.99,64Z"/>
  </g>
</svg>