<?xml version="1.0" encoding="UTF-8"?>
<svg id="Layer_2" data-name="Layer 2" xmlns="http://www.w3.org/2000/svg" viewBox="0 0 640 512">
  <defs>
    <style>
      .cls-1 {
        fill: #000;
        stroke-width: 0px;
      }
    </style>
  </defs>
  <g id="Layer_1-2" data-name="Layer 1">
    <path class="cls-1" d="M520,464H120c-13.3,0-24,10.7-24,24s10.7,24,24,24h400c13.25,0,24-10.75,24-24s-10.7-24-24-24ZM576,0H64C28.65,0,0,28.65,0,64v288c0,35.35,28.65,64,64,64h512c35.35,0,64-28.65,64-64V64c0-35.35-28.7-64-64-64ZM592,352c0,8.82-7.18,16-16,16H64c-8.82,0-16-7.18-16-16V64c0-8.82,7.18-16,16-16h512c8.82,0,16,7.18,16,16v288Z"/>
  </g>
</svg>