<?xml version="1.0" encoding="UTF-8"?>
<svg id="Capa_1" data-name="Capa 1" xmlns="http://www.w3.org/2000/svg" version="1.1" viewBox="0 0 800 800">
  <defs>
    <style>
      .cls-1 {
        fill: #f0f0f0;
        stroke-width: 0px;
      }
    </style>
  </defs>
  <path class="cls-1" d="M727.1,327h-254.3V72.8c0-40.2-32.5-72.8-72.7-72.8s-72.7,32.6-72.7,72.9v254.3H73C32.7,327.2,0,359.8,0,400c0,20.1,8.1,38.5,21.3,51.7,13.2,13.2,31.4,21.5,51.5,21.5h254.7v253.9c0,20.1,8,38.3,21.2,51.5,13.2,13.2,31.3,21.3,51.4,21.3,40.2,0,72.8-32.6,72.8-72.8v-254h254.4c40.2,0,72.8-32.9,72.8-73.1,0-40.2-32.6-73.1-72.8-73.1Z"/>
</svg>