<?xml version="1.0" encoding="UTF-8"?>
<svg id="Layer_1" data-name="Layer 1" xmlns="http://www.w3.org/2000/svg" version="1.1" viewBox="0 0 24 24">
  <defs>
    <style>
      .cls-1 {
        fill: #f0f0f0;
        stroke-width: 0px;
      }
    </style>
  </defs>
  <path class="cls-1" d="M11,0v3h2V0h-2ZM4.2,2.8l-1.4,1.4,2.1,2.1,1.4-1.4-2.1-2.1ZM19.8,2.8l-2.1,2.1,1.4,1.4,2.1-2.1-1.4-1.4ZM12,5c-3.9,0-7,3.1-7,7s3.1,7,7,7,7-3.1,7-7-3.1-7-7-7ZM0,11v2h3v-2H0ZM21,11v2h3v-2h-3ZM4.9,17.7l-2.1,2.1,1.4,1.4,2.1-2.1-1.4-1.4ZM19.1,17.7l-1.4,1.4,2.1,2.1,1.4-1.4-2.1-2.1ZM11,21v3h2v-3h-2Z"/>
</svg>